# xmcd
# Copyright (C) 1995-1998 Ti Kan
#
# Track frame offsets:
#       150
#       16412
#       33326
#       53751
#       72434
#
# Disc length: 1191 seconds
#
# Revision: 0
# Processed by: cddbd v1.4PL0 Copyright (c) Steve Scherf et al.
# Submitted via: CD-Transfer v1.0
#
DISCID=3b04a505
DTITLE=Filterlos - Sms
DYEAR=2001
DGENRE=
TTITLE0=Sms
TTITLE1=Erschossä
TTITLE2=Es Wird So Co...
TTITLE3=Hey Du
TTITLE4=Cannes
EXTD=
EXTT0=
EXTT1=
EXTT2=
EXTT3=
EXTT4=
PLAYORDER=
